# xmcd CD database file
#
# Track frame offsets:
#	150
#	12389
#	24161
#	36741
#	49675
#	74905
#	87471
#	99216
#	112707
#	125703
#	139580
#	151664
#	163964
#	175371
#	187744
#	199727
#	211288
#	223661
#	236761
#	246522
#	256392
#
# Disc length: 3671 seconds
#
# Revision: 3
# Processed by: cddbd v1.5.2PL0 Copyright (c) Steve Scherf et al.
# Submitted via: CDex 1.94
#
DISCID=300e5515
DTITLE=James Brown - The Singles # 5.2 1967-1969
DYEAR=1900
DGENRE=Soul
TTITLE0=Say It Loud-I'm Black And I'm Proud (Part 1)
TTITLE1=Say It Loud-I'm Black And I'm Proud (Part 2)
TTITLE2=James Brown and the Famous Flames - Maybe Good, Maybe Bad  (Part 1)
TTITLE3=James Brown and the Famous Flames - Maybe Good, Maybe Bad  (Part 2)
TTITLE4=Goodbye My Love
TTITLE5=Shades Of Brown
TTITLE6=Steve Soul - Shades Of Brown (Pt. 2)
TTITLE7=Santa Claus Go Straight To The Ghetto
TTITLE8=You Know It
TTITLE9=Tit For Tat (Ain't No Taking Back)
TTITLE10=Believers Shall Enjoy (Non Believers Shall Suffer)
TTITLE11=Let's Unite The Whole World At Christmas
TTITLE12=In The Middle  (Part 1)
TTITLE13=Marva Whitney and the James Brown Band - In The Middle  (Part 2)
TTITLE14=Alfred 'Pee Wee' Ellis featured with the James Brown Band - Little Green Apples
TTITLE15=Alfred 'Pee Wee' Ellis featured with the James Brown Band - Come On In The House
TTITLE16=Give It Up Or Turnit A Loose
TTITLE17=I'll Lose My Mind
TTITLE18=Soul Pride  (Part 1)
TTITLE19=Soul Pride  (Part 2)
TTITLE20=Marva Whitney and James Brown - You Got To Have A Job (If You Don't Work You Can't Eat)
EXTD=
EXTT0=
EXTT1=
EXTT2=
EXTT3=
EXTT4=
EXTT5=
EXTT6=
EXTT7=
EXTT8=
EXTT9=
EXTT10=
EXTT11=
EXTT12=
EXTT13=
EXTT14=
EXTT15=
EXTT16=
EXTT17=
EXTT18=
EXTT19=
EXTT20=
PLAYORDER=
